<svg width="191" height="192" viewBox="0 0 191 192" fill="none" xmlns="http://www.w3.org/2000/svg">
<path d="M191 96C191 43.341 148.159 0.5 95.5 0.5C42.841 0.5 0 43.341 0 96C0 148.659 42.841 191.5 95.5 191.5C148.159 191.5 191 148.659 191 96ZM44.507 158.238L82.12 133.162C86.301 134.672 90.805 135.499 95.5 135.499C100.195 135.499 104.699 134.672 108.88 133.162L146.493 158.238C132.599 169.643 114.836 176.5 95.5 176.5C76.164 176.5 58.401 169.643 44.507 158.238ZM32 110.32C32 110.32 32.0039 73.2764 32 46.611C43.5448 31.801 62.871 21.8 72 19.008V64.273C62.786 71.116 56.643 81.869 56.049 94.057L32 110.32ZM157.355 147.452L122.856 124.453C126.952 120.513 130.2 115.703 132.302 110.319L166.795 133.314C164.142 138.364 160.979 143.104 157.355 147.452ZM152.5 105.5L134.951 94.057C134.358 81.869 128.214 71.115 119 64.273V19.008C128.125 21.799 136.563 26.169 144 31.801L152.5 105.5ZM120 96C120 109.509 109.009 120.5 95.5 120.5C81.991 120.5 71 109.509 71 96C71 82.491 81.991 71.5 95.5 71.5C109.009 71.5 120 82.491 120 96ZM176 96C176 104.046 174.799 111.814 172.591 119.151L152.5 105.5L144 31.801C170.5 51.8693 176 77.395 176 96ZM104 15.952V57.431C101.26 56.828 98.418 56.5 95.5 56.5C92.582 56.5 89.74 56.828 87 57.431V15.952C89.794 15.657 92.629 15.5 95.5 15.5C98.371 15.5 101.206 15.658 104 15.952ZM32 46.611V110.32L18.409 119.151C16.201 111.814 15 104.046 15 96C15 77.395 21.361 60.259 32 46.611ZM24.205 133.315L58.698 110.32C60.8 115.703 64.048 120.514 68.144 124.454L33.645 147.453C30.022 143.104 26.858 138.364 24.205 133.315Z" fill="#FF2D78"/>
</svg>
