<svg width="191" height="191" viewBox="0 0 191 191" fill="none" xmlns="http://www.w3.org/2000/svg">
<path d="M191 95.5C191 42.841 148.159 0 95.5 0C42.841 0 0 42.841 0 95.5C0 148.159 42.841 191 95.5 191C148.159 191 191 148.159 191 95.5ZM44.507 157.738L82.12 132.662C86.301 134.172 90.805 134.999 95.5 134.999C100.195 134.999 104.699 134.172 108.88 132.662L146.493 157.738C132.599 169.143 114.836 176 95.5 176C76.164 176 58.401 169.143 44.507 157.738ZM32 109.82C32 109.82 32.0039 72.7764 32 46.111C43.5448 31.301 62.871 21.3 72 18.508V63.773C62.786 70.616 56.643 81.369 56.049 93.557L32 109.82ZM157.355 146.952L122.856 123.953C126.952 120.013 130.2 115.203 132.302 109.819L166.795 132.814C164.142 137.864 160.979 142.604 157.355 146.952ZM152.5 105L134.951 93.557C134.358 81.369 128.214 70.615 119 63.773V18.508C128.125 21.299 136.563 25.669 144 31.301L152.5 105ZM120 95.5C120 109.009 109.009 120 95.5 120C81.991 120 71 109.009 71 95.5C71 81.991 81.991 71 95.5 71C109.009 71 120 81.991 120 95.5ZM176 95.5C176 103.546 174.799 111.314 172.591 118.651L152.5 105L144 31.301C170.5 51.3693 176 76.895 176 95.5ZM104 15.452V56.931C101.26 56.328 98.418 56 95.5 56C92.582 56 89.74 56.328 87 56.931V15.452C89.794 15.157 92.629 15 95.5 15C98.371 15 101.206 15.158 104 15.452ZM32 46.111V109.82L18.409 118.651C16.201 111.314 15 103.546 15 95.5C15 76.895 21.361 59.759 32 46.111ZM24.205 132.815L58.698 109.82C60.8 115.203 64.048 120.014 68.144 123.954L33.645 146.953C30.022 142.604 26.858 137.864 24.205 132.815Z" fill="#3C67FF"/>
</svg>
